<svg width="48" height="48" xmlns="http://www.w3.org/2000/svg" fill="none">

 <g>
  <title>Layer 1</title>
  <path id="svg_1" stroke-width="4" stroke-linejoin="round" stroke="#fff" d="m40,6l-32,0c-1.10457,0 -2,0.89543 -2,2l0,32c0,1.1046 0.89543,2 2,2l32,0c1.1046,0 2,-0.8954 2,-2l0,-32c0,-1.10457 -0.8954,-2 -2,-2z"/>
  <path id="svg_2" stroke-width="4" stroke-linecap="round" stroke="#fff" d="m16.1231,6l-10.1231,9"/>
  <path id="svg_3" stroke-width="4" stroke-linecap="round" stroke="#fff" d="m26.0027,6l-20.0027,18"/>
  <path id="svg_4" stroke-width="4" stroke-linecap="round" stroke="#fff" d="m35,6l-29,27"/>
  <path id="svg_5" stroke-width="4" stroke-linecap="round" stroke="#fff" d="m19,30l-11.75648,10.70466"/>
  <path id="svg_6" stroke-width="4" stroke-linecap="round" stroke="#fff" d="m41,10l-11.7568,10.8525"/>
  <path id="svg_7" stroke-width="4" stroke-linecap="round" stroke="#fff" d="m19,21l0,21"/>
  <path id="svg_8" stroke-width="4" stroke-linecap="round" stroke="#fff" d="m19,21l23,0"/>
 </g>
</svg>
