<svg width="395" height="395" xmlns="http://www.w3.org/2000/svg" fill="#fff" version="1.1" xml:space="preserve">
 <g>
  <title>Layer 1</title>
  <path d="m205.613,65.609l-75.098,0c-12.09,0 -21.891,9.801 -21.891,21.891l0,220c0,12.09 9.801,21.891 21.891,21.891c12.09,0 21.891,-9.801 21.891,-21.891l0,-73.015l53.207,0c44.532,0 80.762,-36.229 80.762,-80.761l0,-7.354c0,-44.531 -36.23,-80.761 -80.762,-80.761zm36.981,88.116c0,20.391 -16.589,36.98 -36.98,36.98l-53.207,0l0,-81.313l53.207,0c20.392,0 36.98,16.589 36.98,36.979l0,7.354z" id="svg_3"/>
  <line fill="none" id="svg_1" y2="53.5" x2="348.5" y1="364.5" x1="32.5"/>
  <line fill="none" id="svg_6" y2="23.5" x2="361.5" y1="365.5" x1="29.5"/>
  <line transform="translate(358.5 25.5) scale(0.957831 0.938053) translate(-358.5 -25.5)" stroke="#27292a" opacity="0" stroke-width="35" id="svg_7" y2="25.5" x2="358.5" y1="364.5" x1="26.49999" fill="none"/>
  <line stroke="#d8d6d5" id="svg_8" y2="29.5" x2="366.5" y1="361.50001" x1="27.5" stroke-width="30" fill="none"/>
  <path d="m313.002,0l-231.002,0c-45.215,0 -82,36.784 -82,81.998l0,230.993c0,45.22 36.785,82.009 82,82.009l231.002,0c45.214,0 81.998,-36.789 81.998,-82.009l0,-230.993c0,-45.214 -36.784,-81.998 -81.998,-81.998zm66.998,312.991c0,36.949 -30.056,67.009 -66.998,67.009l-231.002,0c-36.944,0 -67,-30.06 -67,-67.009l0,-230.993c0,-36.942 30.056,-66.998 67,-66.998l231.002,0c36.942,0 66.998,30.056 66.998,66.998l0,230.993z" id="svg_2"/>
 </g>

</svg>
